<!DOCTYPE svg PUBLIC "-//W3C//DTD SVG 1.1//EN" "http://www.w3.org/Graphics/SVG/1.1/DTD/svg11.dtd">

<svg version="1.1" id="Uploaded to svgrepo.com" xmlns="http://www.w3.org/2000/svg" xmlns:xlink="http://www.w3.org/1999/xlink" width="800px" height="800px" viewBox="0 0 32 32" xml:space="preserve" fill="#000000">

<g id="SVGRepo_bgCarrier" stroke-width="0"/>

<g id="SVGRepo_tracerCarrier" stroke-linecap="round" stroke-linejoin="round"/>

<g id="SVGRepo_iconCarrier"> <style type="text/css"> .isometric_vijf{fill:#F29227;} .isometric_zeven{fill:#FF7344;} .st0{fill:#225B49;} .st1{fill:#7BD6C4;} .st2{fill:#569080;} .st3{fill:#F05A28;} .st4{fill:#FFBB33;} .st5{fill:#BE1E2D;} .st6{fill:#F29227;} .st7{fill:#F8F7C5;} .st8{fill:#F5DF89;} .st9{fill:#6B9086;} .st10{fill:none;} .st11{fill:#72C0AB;} .st12{fill:#AD9A74;} .st13{fill:#F2D76C;} .st14{fill:#F28103;} .st15{fill:#FF7344;} </style> <g> <path class="isometric_vijf" d="M17.075,6.06C16.721,6.022,16.363,6,16,6C10.477,6,6,10.477,6,16c0,5.523,4.477,10,10,10 c1.253,0,2.448-0.241,3.553-0.662C23.319,23.904,26,20.27,26,16C26,10.84,22.092,6.596,17.075,6.06z"/> <path class="isometric_zeven" d="M17.075,6.06c3.366,1.891,5.699,5.922,5.706,10.606c0,3.866-1.376,6.66-3.228,8.673 C23.319,23.904,26,20.27,26,16C26,10.84,22.092,6.596,17.075,6.06z"/> </g> </g>

</svg>